<?xml version="1.0" standalone="no"?>
<!DOCTYPE svg PUBLIC "-//W3C//DTD SVG 20010904//EN"
 "http://www.w3.org/TR/2001/REC-SVG-20010904/DTD/svg10.dtd">
<svg version="1.0" xmlns="http://www.w3.org/2000/svg"
 width="900.000000pt" height="900.000000pt" viewBox="0 0 900.000000 900.000000"
 preserveAspectRatio="xMidYMid meet">
<g transform="translate(0.000000,900.000000) scale(0.100000,-0.100000)"
fill="#000000" stroke="none">
<path d="M4460 8985 c0 -8 -4 -15 -9 -15 -10 0 -143 -112 -226 -190 -27 -27
-106 -95 -174 -154 -68 -58 -130 -114 -138 -126 -8 -11 -20 -20 -28 -20 -8 0
-18 -6 -22 -14 -4 -8 -35 -38 -68 -67 -116 -101 -189 -165 -255 -224 -61 -54
-140 -124 -211 -187 -70 -61 -172 -151 -263 -233 -56 -49 -107 -94 -115 -100
-7 -5 -25 -21 -40 -36 -14 -14 -62 -56 -106 -94 -44 -38 -84 -74 -90 -81 -5
-6 -46 -42 -90 -79 -44 -38 -82 -71 -85 -74 -3 -3 -39 -35 -80 -71 -41 -35
-87 -76 -101 -90 -15 -14 -39 -36 -55 -49 -16 -13 -56 -49 -90 -80 -34 -31
-90 -81 -125 -111 -35 -30 -86 -75 -114 -100 -27 -25 -84 -75 -125 -110 -41
-35 -80 -69 -85 -74 -6 -6 -46 -42 -90 -80 -44 -39 -87 -78 -95 -88 -8 -9 -31
-29 -50 -43 -19 -14 -53 -43 -75 -63 -22 -21 -76 -69 -120 -107 -44 -39 -102
-91 -130 -116 -27 -26 -88 -80 -135 -119 -47 -40 -114 -99 -150 -132 -36 -32
-76 -69 -90 -82 -14 -12 -59 -51 -100 -86 -41 -35 -84 -73 -96 -85 -11 -12
-90 -82 -175 -155 -85 -73 -166 -145 -180 -159 -14 -14 -54 -51 -89 -81 -36
-30 -93 -82 -127 -114 l-63 -59 0 -269 0 -269 56 -67 c105 -125 158 -182 169
-182 6 0 25 14 44 30 18 17 69 62 113 100 45 39 88 79 95 90 8 11 19 20 25 20
6 0 26 15 43 33 38 37 53 51 199 177 61 52 121 107 135 121 15 15 76 68 136
120 61 52 124 107 142 124 18 16 47 43 65 58 18 16 49 43 68 60 20 18 71 64
115 102 43 39 102 91 129 116 28 25 87 76 131 114 44 37 90 78 102 89 62 58
84 77 158 142 44 38 125 109 181 159 55 49 128 115 163 145 35 30 78 69 95 85
18 17 61 55 96 85 146 126 256 225 263 237 4 7 13 13 19 13 6 0 26 15 43 33
17 17 60 57 95 87 35 30 70 62 79 71 9 9 50 44 91 79 41 35 80 68 85 74 6 6
44 40 85 75 41 35 84 74 95 86 16 18 113 104 198 175 9 8 28 24 40 36 32 30
177 158 274 241 46 40 105 92 131 116 66 61 173 157 208 187 77 64 280 244
290 256 15 19 46 17 65 -3 20 -23 133 -122 170 -149 15 -11 36 -30 46 -41 10
-12 41 -41 69 -65 83 -70 215 -187 274 -242 30 -28 75 -68 100 -87 25 -20 59
-49 75 -64 17 -15 53 -49 80 -74 28 -25 102 -91 165 -146 63 -55 139 -122 170
-150 30 -27 84 -75 119 -105 35 -30 69 -60 76 -67 7 -7 48 -43 91 -80 44 -38
93 -82 110 -98 55 -54 118 -110 164 -145 25 -19 66 -55 92 -80 67 -64 168
-154 183 -163 7 -4 38 -31 68 -60 30 -28 80 -74 112 -102 32 -27 85 -74 119
-104 34 -30 87 -77 119 -105 32 -28 73 -64 91 -81 19 -16 49 -43 68 -60 18
-16 65 -58 103 -92 39 -34 113 -99 165 -145 52 -46 109 -98 127 -115 17 -18
36 -33 42 -33 5 0 19 -13 31 -30 12 -16 27 -30 33 -30 6 0 20 -11 32 -24 11
-13 72 -69 135 -123 63 -55 129 -113 147 -129 46 -42 91 -82 162 -144 35 -30
91 -80 125 -111 34 -31 113 -100 176 -155 63 -54 124 -108 135 -120 11 -11 56
-51 100 -89 44 -38 93 -82 109 -97 40 -37 57 -35 92 11 65 87 170 199 187 200
16 1 17 21 17 277 0 168 -4 273 -9 269 -5 -3 -22 8 -38 23 -15 16 -80 73 -143
127 -63 53 -124 107 -135 119 -11 11 -70 64 -130 116 -61 53 -135 118 -165
147 -30 28 -96 86 -146 129 -51 44 -132 115 -181 159 -49 44 -118 105 -153
135 -35 30 -92 82 -128 115 -35 33 -69 62 -75 64 -6 2 -25 18 -42 35 -16 17
-81 76 -144 131 -63 55 -122 107 -131 115 -9 8 -52 46 -96 85 -43 38 -89 79
-101 90 -12 11 -49 45 -83 75 -35 30 -72 64 -84 75 -12 11 -56 49 -97 85 -41
35 -81 71 -90 80 -9 8 -29 26 -45 40 -146 126 -253 221 -328 293 -33 31 -64
57 -68 57 -5 0 -23 15 -41 33 -18 17 -73 67 -122 111 -152 133 -249 220 -282
253 -17 18 -35 33 -40 33 -4 0 -38 28 -74 63 -67 63 -172 156 -218 192 -14 11
-45 39 -69 62 -24 24 -48 43 -52 43 -5 0 -17 11 -27 24 -16 20 -90 86 -207
186 -16 14 -59 53 -95 88 -36 34 -69 62 -73 62 -6 0 -62 50 -169 150 -21 19
-51 46 -69 60 -17 14 -45 39 -63 56 -18 17 -84 75 -147 129 -63 55 -116 105
-118 112 -5 19 -62 17 -62 -2z"/>
<path d="M1146 8381 c-7 -11 -9 -1752 -2 -1758 3 -3 18 5 33 17 24 18 183 162
217 196 6 5 56 50 111 99 55 49 123 110 150 136 28 25 73 66 100 89 28 24 61
55 75 69 14 14 54 51 89 81 35 30 87 78 117 105 29 28 81 75 115 105 34 30 88
79 119 107 l57 53 9 202 c11 246 12 467 2 491 -7 16 -45 17 -597 17 -328 0
-592 -4 -595 -9z"/>
<path d="M4440 7337 c-31 -28 -145 -130 -216 -192 -12 -11 -50 -45 -85 -75
-119 -103 -284 -251 -326 -290 -23 -22 -45 -40 -49 -40 -4 0 -16 -10 -28 -22
-12 -13 -51 -49 -86 -81 -96 -85 -119 -105 -201 -179 -41 -36 -96 -85 -124
-108 -78 -66 -207 -182 -236 -212 -15 -16 -32 -28 -37 -28 -6 0 -17 -9 -25
-20 -8 -12 -54 -55 -103 -97 -49 -41 -117 -101 -150 -132 -62 -57 -135 -121
-233 -204 -29 -25 -60 -55 -68 -66 -8 -12 -21 -21 -29 -21 -8 0 -17 -6 -20
-13 -2 -7 -59 -60 -126 -118 -67 -57 -151 -131 -185 -164 -35 -33 -70 -63 -78
-67 -7 -5 -27 -21 -42 -36 -30 -28 -171 -154 -207 -185 -40 -33 -151 -132
-184 -164 -19 -18 -37 -33 -40 -33 -4 0 -19 -12 -35 -27 -16 -16 -40 -40 -55
-54 -15 -15 -81 -73 -147 -130 -66 -57 -135 -118 -152 -136 l-33 -32 0 -2100
c0 -1581 3 -2113 12 -2153 14 -65 60 -127 99 -135 16 -3 32 -10 35 -14 3 -5
478 -9 1074 -9 l1069 0 3 963 3 963 25 31 c14 17 50 46 80 64 l54 34 871 3
c569 2 882 0 905 -7 66 -19 128 -67 150 -115 20 -44 20 -59 20 -990 l0 -946
1069 0 c703 0 1072 3 1076 10 3 5 16 10 27 10 13 0 40 19 65 46 l43 47 0 2157
0 2158 -72 63 c-40 35 -100 88 -134 119 -135 122 -197 175 -214 184 -10 4 -23
19 -29 32 -6 13 -16 24 -23 24 -7 0 -24 11 -38 25 -68 67 -104 99 -205 185
-109 92 -151 129 -205 183 -15 15 -32 27 -36 27 -4 0 -21 15 -38 33 -17 17
-59 57 -94 87 -35 30 -93 82 -129 115 -36 33 -77 69 -92 80 -35 26 -148 128
-221 200 -14 14 -29 25 -33 25 -5 0 -23 15 -40 33 -39 40 -180 165 -217 192
-15 11 -40 34 -57 50 -28 28 -104 95 -190 170 -20 17 -48 41 -63 55 -114 106
-140 129 -180 161 -25 20 -58 49 -75 65 -16 15 -86 77 -155 138 -124 109 -138
122 -255 227 -33 30 -89 79 -124 109 -35 30 -69 60 -76 67 -7 7 -48 43 -91 80
-44 37 -97 85 -119 105 -78 74 -120 108 -130 108 -5 0 -26 -15 -45 -33z"/>
</g>
</svg>
